<svg width="95" height="16" viewBox="0 0 95 16" fill="none" xmlns="http://www.w3.org/2000/svg">
<path d="M0.786094 15V0.899999H6.94609C8.42609 0.899999 9.57276 1.22667 10.3861 1.88C11.1994 2.52 11.6061 3.41333 11.6061 4.56C11.6061 5.32 11.4128 5.97333 11.0261 6.52C10.6394 7.06667 10.1061 7.46667 9.42609 7.72C10.2261 7.94667 10.8461 8.34667 11.2861 8.92C11.7394 9.48 11.9661 10.1933 11.9661 11.06C11.9661 12.3133 11.5394 13.2867 10.6861 13.98C9.84609 14.66 8.67276 15 7.16609 15H0.786094ZM3.24609 6.88H6.50609C8.25276 6.88 9.12609 6.20667 9.12609 4.86C9.12609 3.51333 8.25276 2.84 6.50609 2.84H3.24609V6.88ZM3.24609 13.06H6.84609C8.60609 13.06 9.48609 12.3533 9.48609 10.94C9.48609 9.52667 8.60609 8.82 6.84609 8.82H3.24609V13.06ZM18.7756 15.2C17.7623 15.2 16.8823 14.9933 16.1356 14.58C15.389 14.1667 14.809 13.58 14.3956 12.82C13.9823 12.0467 13.7756 11.14 13.7756 10.1C13.7756 9.06 13.9823 8.16 14.3956 7.4C14.809 6.64 15.389 6.05333 16.1356 5.64C16.8823 5.22667 17.7623 5.02 18.7756 5.02C19.789 5.02 20.669 5.22667 21.4156 5.64C22.1623 6.05333 22.7423 6.64 23.1556 7.4C23.569 8.16 23.7756 9.06 23.7756 10.1C23.7756 11.14 23.569 12.0467 23.1556 12.82C22.7423 13.58 22.1623 14.1667 21.4156 14.58C20.669 14.9933 19.789 15.2 18.7756 15.2ZM18.7756 13.3C19.5223 13.3 20.1223 13.0333 20.5756 12.5C21.029 11.9533 21.2556 11.1533 21.2556 10.1C21.2556 9.03333 21.029 8.24 20.5756 7.72C20.1223 7.18667 19.5223 6.92 18.7756 6.92C18.029 6.92 17.429 7.18667 16.9756 7.72C16.5223 8.24 16.2956 9.03333 16.2956 10.1C16.2956 11.1533 16.5223 11.9533 16.9756 12.5C17.429 13.0333 18.029 13.3 18.7756 13.3ZM30.2991 15.2C29.2857 15.2 28.4057 14.9933 27.6591 14.58C26.9124 14.1667 26.3324 13.58 25.9191 12.82C25.5057 12.0467 25.2991 11.14 25.2991 10.1C25.2991 9.06 25.5057 8.16 25.9191 7.4C26.3324 6.64 26.9124 6.05333 27.6591 5.64C28.4057 5.22667 29.2857 5.02 30.2991 5.02C31.3124 5.02 32.1924 5.22667 32.9391 5.64C33.6857 6.05333 34.2657 6.64 34.6791 7.4C35.0924 8.16 35.2991 9.06 35.2991 10.1C35.2991 11.14 35.0924 12.0467 34.6791 12.82C34.2657 13.58 33.6857 14.1667 32.9391 14.58C32.1924 14.9933 31.3124 15.2 30.2991 15.2ZM30.2991 13.3C31.0457 13.3 31.6457 13.0333 32.0991 12.5C32.5524 11.9533 32.7791 11.1533 32.7791 10.1C32.7791 9.03333 32.5524 8.24 32.0991 7.72C31.6457 7.18667 31.0457 6.92 30.2991 6.92C29.5524 6.92 28.9524 7.18667 28.4991 7.72C28.0457 8.24 27.8191 9.03333 27.8191 10.1C27.8191 11.1533 28.0457 11.9533 28.4991 12.5C28.9524 13.0333 29.5524 13.3 30.2991 13.3ZM37.3625 15V0.899999H39.8625V9.38H39.9025L43.8425 5.22H46.8625L42.4225 9.9L47.1425 15H44.0825L39.9025 10.64H39.8625V15H37.3625ZM52.2052 15L47.2252 0.899999H49.8652L53.3652 11.3L57.0452 0.899999H58.9452L62.5452 11.44L66.1452 0.899999H68.6452L63.6252 15H61.5052L57.9252 4.82L54.3252 15H52.2052ZM70.1908 3.12V0.68H72.9908V3.12H70.1908ZM70.3508 15V5.22H72.8508V15H70.3508ZM79.0284 15.2C78.2018 15.2 77.4284 15.1 76.7084 14.9C75.9884 14.7 75.3884 14.4133 74.9084 14.04L75.5484 12.4C76.0418 12.7333 76.5951 12.9933 77.2084 13.18C77.8218 13.3533 78.4351 13.44 79.0484 13.44C79.6884 13.44 80.1618 13.3333 80.4684 13.12C80.7884 12.8933 80.9484 12.6 80.9484 12.24C80.9484 11.68 80.5351 11.32 79.7084 11.16L77.7084 10.78C76.0151 10.46 75.1684 9.58 75.1684 8.14C75.1684 7.5 75.3418 6.94667 75.6884 6.48C76.0484 6.01333 76.5418 5.65333 77.1684 5.4C77.7951 5.14667 78.5151 5.02 79.3284 5.02C80.0218 5.02 80.6884 5.12 81.3284 5.32C81.9684 5.50667 82.5151 5.79333 82.9684 6.18L82.2884 7.82C81.9018 7.5 81.4351 7.24667 80.8884 7.06C80.3551 6.87333 79.8418 6.78 79.3484 6.78C78.6951 6.78 78.2084 6.89333 77.8884 7.12C77.5818 7.34667 77.4284 7.64667 77.4284 8.02C77.4284 8.60667 77.8084 8.96667 78.5684 9.1L80.5684 9.48C81.4351 9.64 82.0884 9.93333 82.5284 10.36C82.9818 10.7867 83.2084 11.36 83.2084 12.08C83.2084 13.0533 82.8284 13.82 82.0684 14.38C81.3084 14.9267 80.2951 15.2 79.0284 15.2ZM90.0341 15.2C88.9274 15.2 87.9741 14.9933 87.1741 14.58C86.3741 14.1667 85.7541 13.58 85.3141 12.82C84.8874 12.06 84.6741 11.16 84.6741 10.12C84.6741 9.10667 84.8807 8.22 85.2941 7.46C85.7207 6.7 86.3007 6.10667 87.0341 5.68C87.7807 5.24 88.6274 5.02 89.5741 5.02C90.9607 5.02 92.0541 5.46 92.8541 6.34C93.6674 7.22 94.0741 8.42 94.0741 9.94V10.68H87.0741C87.2607 12.4267 88.2607 13.3 90.0741 13.3C90.6207 13.3 91.1674 13.22 91.7141 13.06C92.2607 12.8867 92.7607 12.62 93.2141 12.26L93.9141 13.94C93.4474 14.3267 92.8607 14.6333 92.1541 14.86C91.4474 15.0867 90.7407 15.2 90.0341 15.2ZM89.6741 6.72C88.9407 6.72 88.3474 6.94667 87.8941 7.4C87.4407 7.85333 87.1674 8.46667 87.0741 9.24H91.9941C91.9407 8.42667 91.7141 7.80667 91.3141 7.38C90.9274 6.94 90.3807 6.72 89.6741 6.72Z" fill="url(#paint0_linear_726_2407)"/>
<defs>
<linearGradient id="paint0_linear_726_2407" x1="-1" y1="8.31373" x2="95" y2="8.31373" gradientUnits="userSpaceOnUse">
<stop stop-color="#7FD1CC"/>
<stop offset="1" stop-color="#9694F5"/>
</linearGradient>
</defs>
</svg>
